HIERARCHY
ROOT root
{
	OFFSET	0	13.1	24.9
	CHANNELS 6  Xposition Yposition Zposition Xrotation Yrotation Zrotation
	JOINT spine_1
	{
		OFFSET	0	9.99999	0
		CHANNELS 3  Xrotation Yrotation Zrotation
		JOINT spine_2
		{
			OFFSET	0	112	-10
			CHANNELS 3  Xrotation Yrotation Zrotation
			JOINT spine_3
			{
				OFFSET	0	206.5	19.3
				CHANNELS 3  Xrotation Yrotation Zrotation
				JOINT spine_4
				{
					OFFSET	0	110.4	14.6
					CHANNELS 3  Xrotation Yrotation Zrotation
					JOINT neck_1
					{
						OFFSET	0	71.8	-50.3
						CHANNELS 3  Xrotation Yrotation Zrotation
						JOINT neck_2
						{
							OFFSET	0	86.2	-25.8
							CHANNELS 3  Xrotation Yrotation Zrotation
							JOINT head_ee
							{
								OFFSET	0	179.8	-8.7
								CHANNELS 3  Xrotation Yrotation Zrotation
								End Site
								{
									OFFSET	1	0	0
								}
							}
						}
					}
					JOINT left_clavicle
					{
						OFFSET	-43.2	22.4	-70.8
						CHANNELS 3  Xrotation Yrotation Zrotation
						JOINT left_shoulder
						{
							OFFSET	-93.9	-5.79999	48.7
							CHANNELS 3  Xrotation Yrotation Zrotation
							JOINT left_elbow
							{
								OFFSET	-291.4	-30.8	15.2
								CHANNELS 3  Xrotation Yrotation Zrotation
								JOINT left_lowarm_twist
								{
									OFFSET	-110.7	-3.89999	13.6
									CHANNELS 3  Xrotation Yrotation Zrotation
									JOINT left_hand
									{
										OFFSET	-110.7	-3.89999	13.6
										CHANNELS 3  Xrotation Yrotation Zrotation
										JOINT left_ee
										{
											OFFSET	-80.8	-5.10001	12.1
											CHANNELS 3  Xrotation Yrotation Zrotation
											End Site
											{
												OFFSET	1	0	0
											}
										}
									}
								}
							}
						}
					}
					JOINT right_clavicle
					{
						OFFSET	43.2	22.4	-70.8
						CHANNELS 3  Xrotation Yrotation Zrotation
						JOINT right_shoulder
						{
							OFFSET	93.9	-5.79999	48.7
							CHANNELS 3  Xrotation Yrotation Zrotation
							JOINT right_elbow
							{
								OFFSET	291.4	-30.8	15.2
								CHANNELS 3  Xrotation Yrotation Zrotation
								JOINT right_lowarm_twist
								{
									OFFSET	110.7	-3.89999	13.6
									CHANNELS 3  Xrotation Yrotation Zrotation
									JOINT right_hand
									{
										OFFSET	110.7	-3.89999	13.6
										CHANNELS 3  Xrotation Yrotation Zrotation
										JOINT right_ee
										{
											OFFSET	80.8	-5.10001	12.1
											CHANNELS 3  Xrotation Yrotation Zrotation
											End Site
											{
												OFFSET	1	0	0
											}
										}
									}
								}
							}
						}
					}
				}
			}
		}
	}
	JOINT left_hip
	{
		OFFSET	-82.8	-127.5	0.300001
		CHANNELS 3  Xrotation Yrotation Zrotation
		JOINT left_knee
		{
			OFFSET	-28.2	-396.7	2.2
			CHANNELS 3  Xrotation Yrotation Zrotation
			JOINT left_ankle
			{
				OFFSET	-11.7	-411.3	35.4
				CHANNELS 3  Xrotation Yrotation Zrotation
				JOINT left_toes
				{
					OFFSET	0	-60	-88.6
					CHANNELS 3  Xrotation Yrotation Zrotation
					JOINT left_foot_ee
					{
						OFFSET	-22.5	-16.5	-42.2
						CHANNELS 3  Xrotation Yrotation Zrotation
						End Site
						{
							OFFSET	1	0	0
						}
					}
				}
			}
		}
	}
	JOINT right_hip
	{
		OFFSET	82.8	-127.5	0.300001
		CHANNELS 3  Xrotation Yrotation Zrotation
		JOINT right_knee
		{
			OFFSET	28.2	-396.7	2.2
			CHANNELS 3  Xrotation Yrotation Zrotation
			JOINT right_ankle
			{
				OFFSET	11.7	-411.3	35.4
				CHANNELS 3  Xrotation Yrotation Zrotation
				JOINT right_toes
				{
					OFFSET	0	-60	-88.6
					CHANNELS 3  Xrotation Yrotation Zrotation
					JOINT right_foot_ee
					{
						OFFSET	22.5	-16.5	-42.2
						CHANNELS 3  Xrotation Yrotation Zrotation
						End Site
						{
							OFFSET	1	0	0
						}
					}
				}
			}
		}
	}
}
MOTION
Frames: 9
Frame Time: 0.02
2960.30752324 698.406 -1904.79860476 0.675241925275 23.8810497911 7.53531652761 0.361384 -1.19754 -3.02301 0.365909 -1.00284 -3.093 0.423086 -0.355164 -3.23193 0.409544 -0.860879 -3.13544 -1.01522 3.87563 5.86463 -0.92548 2.22064 6.6935 -0.0 0.0 -0.0 9.37831 -4.98641 18.4999 -2.97835 -25.6155 58.2855 0.642882 -17.6649 0.0998975 -11.8077 -0.562361 1.39837 4.2309 -10.113 25.0105 -0.0 0.0 -0.0 8.20584 11.0029 -15.9213 -30.162 30.4036 -54.9202 0.236038 6.66925 -0.013753 -5.11067 0.207861 -0.619125 1.47446 23.1175 0.138183 0.0 0.0 0.0 25.6767 -36.407 8.46507 -43.9546 -0.737333 6.54282 15.4797 27.5607 -2.29426 37.9122 -0.0 -0.0 -0.0 0.0 -0.0 23.0826 27.9257 -19.6473 -48.4963 1.09374 -7.14384 35.9455 -18.1797 4.6014 29.2081 -0.0 -0.0 0.0 0.0 0.0 
2955.41807473 698.406 -1900.20380907 0.681718899662 25.0821707286 7.51968766553 0.361384 -1.19754 -3.02301 0.365909 -1.00284 -3.093 0.423086 -0.355164 -3.23193 0.409544 -0.860879 -3.13544 -1.01522 3.87563 5.86463 -0.92548 2.22064 6.6935 -0.0 0.0 -0.0 9.37831 -4.98641 18.4999 -2.97835 -25.6155 58.2855 0.642882 -17.6649 0.0998975 -11.8077 -0.562361 1.39837 4.2309 -10.113 25.0105 -0.0 0.0 -0.0 8.20584 11.0029 -15.9213 -30.162 30.4036 -54.9202 0.236038 6.66925 -0.013753 -5.11067 0.207861 -0.619125 1.47446 23.1175 0.138183 0.0 0.0 0.0 25.6767 -36.407 8.46507 -43.9546 -0.737333 6.54282 15.4797 27.5607 -2.29426 37.9122 -0.0 -0.0 -0.0 0.0 -0.0 23.0826 27.9257 -19.6473 -48.4963 1.09374 -7.14384 35.9455 -18.1797 4.6014 29.2081 -0.0 -0.0 0.0 0.0 0.0 
2949.85243171 693.711 -1905.14901725 -0.45385985453 25.8179136897 8.00692743616 0.693718 -1.06407 -3.07386 0.698557 -0.866411 -3.13525 0.748411 -0.231221 -3.24443 0.734487 -0.740459 -3.16734 -1.83265 3.8771 6.47501 -1.72166 1.83506 7.32121 -0.0 0.0 -0.0 9.2092 -5.07522 18.1432 -2.24892 -25.7884 56.7248 0.665191 -18.238 0.106774 -11.974 -0.572315 1.41717 4.10351 -10.1796 24.0367 -0.0 0.0 -0.0 7.85034 9.6499 -15.2048 -30.8167 30.2195 -55.5941 0.266397 7.51779 -0.0175022 -5.19138 0.211585 -0.628749 1.57617 23.9087 -0.162443 0.0 0.0 0.0 24.7564 -35.0774 7.88905 -43.0166 -0.669751 6.41533 15.5984 27.2806 -2.30678 38.0001 -0.0 -0.0 -0.0 0.0 -0.0 23.7211 28.3193 -18.9115 -45.7909 0.875661 -6.78915 36.5271 -18.7619 4.66995 29.6174 -0.0 -0.0 0.0 0.0 0.0 
2916.29953994 701.936 -1930.73937905 0.599511917182 23.8995509447 7.1293710334 0.625309 -0.818012 -3.02768 0.630192 -0.623789 -3.07354 0.665879 -0.000636855 -3.13614 0.652498 -0.495683 -3.09676 -2.73868 5.04954 8.3395 -2.55385 2.60997 9.40817 -0.0 0.0 -0.0 8.83173 -2.17349 17.3172 -0.610703 -26.1738 55.1295 0.967555 -25.6079 0.219898 -11.9534 -0.571078 1.41484 2.99138 -10.9383 15.716 -0.0 0.0 -0.0 6.33781 4.96715 -12.1837 -34.797 31.5411 -55.262 0.423095 11.8374 -0.0438624 -6.5836 0.277956 -0.793933 1.73557 25.6222 -0.400697 0.0 0.0 0.0 22.2029 -24.1205 2.50575 -40.9145 -0.52597 6.12582 18.9981 23.4486 -2.71367 36.9837 -0.0 -0.0 -0.0 0.0 -0.0 23.3782 25.6046 -16.4244 -38.9935 0.40398 -5.85688 33.4089 -17.5851 4.33274 29.3399 -0.0 -0.0 0.0 0.0 0.0 
2862.9453241 697.243 -1948.83135071 -0.53166587726 29.1061652118 7.75751425734 0.755684 -0.701093 -3.1851 0.76119 -0.497105 -3.2232 0.791212 0.146348 -3.25799 0.776593 -0.36975 -3.24026 -1.88972 5.3403 8.25746 -1.71055 3.05669 9.38282 -0.0 0.0 -0.0 8.25915 0.419664 16.0984 1.05673 -24.4796 52.0751 1.51567 -36.8974 0.505653 -11.3305 -0.534103 1.34425 1.18189 -14.5135 1.76918 -0.0 0.0 -0.0 5.47353 1.03932 -10.5579 -37.255 31.7501 -54.7976 0.501039 13.9393 -0.0612509 -6.89629 0.293415 -0.83081 1.55837 26.7638 1.26982 0.0 0.0 0.0 19.7828 -9.10615 -2.66513 -41.5577 -0.568828 6.21494 31.0035 17.1931 -4.07097 38.7083 -0.0 -0.0 -0.0 0.0 -0.0 22.1187 16.1889 -12.3991 -32.7326 0.0702646 -4.95516 29.9468 -19.1833 3.98452 28.9657 -0.0 -0.0 0.0 0.0 0.0 
2831.42428113 690.48 -1960.71871941 1.27818961334 32.8220835814 6.82001823143 0.657403 -0.830435 -3.1472 0.662693 -0.628593 -3.1936 0.700057 0.0165725 -3.25477 0.685621 -0.497395 -3.21662 -0.978943 5.67742 6.47989 -0.867753 4.95136 7.55651 -0.0 0.0 -0.0 8.72394 -1.9938 17.0921 1.19166 -21.0918 51.155 1.54813 -37.4819 0.525276 -10.0797 -0.462186 1.2013 0.691466 -15.6669 -2.02342 -0.0 0.0 -0.0 5.00384 -0.403497 -9.68114 -37.4079 32.217 -55.6383 0.520542 14.4596 -0.0660352 -7.01642 0.299408 -0.844956 1.4306 26.6159 2.02156 0.0 0.0 0.0 12.3935 -4.50381 -2.84822 -41.6753 -0.576775 6.23119 33.986 15.5815 -4.36333 40.2767 -0.0 -0.0 -0.0 0.0 -0.0 27.4038 12.8697 -12.7707 -29.0488 -0.0793234 -4.40972 19.7019 -20.1824 2.76467 26.2711 -0.0 -0.0 0.0 0.0 0.0 
2816.10086101 691.312 -1956.33522223 1.03606222763 34.9876826299 6.62119474759 0.614498 -0.809956 -2.89654 0.618949 -0.624083 -2.94215 0.65308 -0.02637 -3.00744 0.640808 -0.500797 -2.96561 -0.997342 6.36194 5.20897 -0.913036 7.21442 6.28507 -0.0 0.0 -0.0 8.96487 -4.54643 17.6249 1.77656 -18.8462 50.8309 1.59192 -38.2561 0.552157 -7.76835 -0.337591 0.933213 -0.0617048 -16.4114 -7.40255 -0.0 0.0 -0.0 4.75916 -2.26585 -9.26799 -36.7563 32.9142 -55.9607 0.562512 15.5708 -0.0769089 -6.77542 0.287415 -0.816565 1.34584 26.3232 2.43278 0.0 0.0 0.0 7.42096 -1.25246 -2.14693 -32.8209 -0.0742763 4.9681 28.7278 13.8661 -3.78352 37.8497 -0.0 -0.0 -0.0 0.0 -0.0 30.5478 10.9703 -12.2369 -26.1121 -0.173241 -3.96886 6.92939 -23.3027 1.03111 27.0149 -0.0 -0.0 0.0 0.0 0.0 
2818.3451858 691.312 -1959.13472077 1.03048214191 34.5419519248 6.63098070546 0.614498 -0.809956 -2.89654 0.618949 -0.624083 -2.94215 0.65308 -0.02637 -3.00744 0.640808 -0.500797 -2.96561 -0.997342 6.36194 5.20897 -0.913036 7.21442 6.28507 -0.0 0.0 -0.0 8.96487 -4.54643 17.6249 1.77656 -18.8462 50.8309 1.59192 -38.2561 0.552157 -7.76835 -0.337591 0.933213 -0.0617048 -16.4114 -7.40255 -0.0 0.0 -0.0 4.75916 -2.26585 -9.26799 -36.7563 32.9142 -55.9607 0.562512 15.5708 -0.0769089 -6.77542 0.287415 -0.816565 1.34584 26.3232 2.43278 0.0 0.0 0.0 7.42096 -1.25246 -2.14693 -32.8209 -0.0742763 4.9681 28.7278 13.8661 -3.78352 37.8497 -0.0 -0.0 -0.0 0.0 -0.0 30.5478 10.9703 -12.2369 -26.1121 -0.173241 -3.96886 6.92939 -23.3027 1.03111 27.0149 -0.0 -0.0 0.0 0.0 0.0 
2818.6982839 691.312 -1959.57112627 1.02962018035 34.4722161634 6.63250223949 0.614498 -0.809956 -2.89654 0.618949 -0.624083 -2.94215 0.65308 -0.02637 -3.00744 0.640808 -0.500797 -2.96561 -0.997342 6.36194 5.20897 -0.913036 7.21442 6.28507 -0.0 0.0 -0.0 8.96487 -4.54643 17.6249 1.77656 -18.8462 50.8309 1.59192 -38.2561 0.552157 -7.76835 -0.337591 0.933213 -0.0617048 -16.4114 -7.40255 -0.0 0.0 -0.0 4.75916 -2.26585 -9.26799 -36.7563 32.9142 -55.9607 0.562512 15.5708 -0.0769089 -6.77542 0.287415 -0.816565 1.34584 26.3232 2.43278 0.0 0.0 0.0 7.42096 -1.25246 -2.14693 -32.8209 -0.0742763 4.9681 28.7278 13.8661 -3.78352 37.8497 -0.0 -0.0 -0.0 0.0 -0.0 30.5478 10.9703 -12.2369 -26.1121 -0.173241 -3.96886 6.92939 -23.3027 1.03111 27.0149 -0.0 -0.0 0.0 0.0 0.0 
